<mxfile host="Electron" modified="2024-04-10T17:16:42.452Z" agent="Mozilla/5.0 (X11; Linux x86_64) AppleWebKit/537.36 (KHTML, like Gecko) draw.io/24.1.0 Chrome/120.0.6099.109 Electron/28.1.0 Safari/537.36" etag="KIk9N_w23r3k2sbIEVtB" version="24.1.0" type="device">
  <diagram name="Page-1" id="mcp1PJNOSqDEv91YHYnR">
    <mxGraphModel dx="955" dy="554" grid="1" gridSize="10" guides="1" tooltips="1" connect="1" arrows="1" fold="1" page="1" pageScale="1" pageWidth="850" pageHeight="1100" math="0" shadow="0">
      <root>
        <mxCell id="0" />
        <mxCell id="1" parent="0" />
        <mxCell id="X8HMs5meieHF2P_SXbaM-25" style="edgeStyle=orthogonalEdgeStyle;rounded=0;orthogonalLoop=1;jettySize=auto;html=1;exitX=0.5;exitY=0;exitDx=0;exitDy=0;exitPerimeter=0;strokeColor=default;align=center;verticalAlign=middle;fontFamily=Helvetica;fontSize=11;fontColor=default;labelBackgroundColor=default;endArrow=block;endFill=1;entryX=0.5;entryY=0;entryDx=0;entryDy=0;entryPerimeter=0;" edge="1" parent="1" source="X8HMs5meieHF2P_SXbaM-3" target="X8HMs5meieHF2P_SXbaM-26">
          <mxGeometry relative="1" as="geometry">
            <mxPoint x="775" y="350" as="targetPoint" />
            <mxPoint x="95" y="250" as="sourcePoint" />
            <Array as="points">
              <mxPoint x="95" y="90" />
              <mxPoint x="775" y="90" />
            </Array>
          </mxGeometry>
        </mxCell>
        <mxCell id="X8HMs5meieHF2P_SXbaM-9" value="Kino" style="html=1;whiteSpace=wrap;verticalAlign=top;" vertex="1" parent="1">
          <mxGeometry x="180" y="130" width="530" height="510" as="geometry" />
        </mxCell>
        <mxCell id="X8HMs5meieHF2P_SXbaM-10" value="Kassensubsystem" style="shape=folder;fontStyle=1;spacingTop=10;tabWidth=40;tabHeight=14;tabPosition=left;html=1;whiteSpace=wrap;verticalAlign=top;" vertex="1" parent="1">
          <mxGeometry x="200" y="160" width="170" height="260" as="geometry" />
        </mxCell>
        <mxCell id="X8HMs5meieHF2P_SXbaM-1" value="Kunde" style="shape=umlActor;verticalLabelPosition=bottom;verticalAlign=top;html=1;" vertex="1" parent="1">
          <mxGeometry x="80" y="500" width="30" height="60" as="geometry" />
        </mxCell>
        <mxCell id="X8HMs5meieHF2P_SXbaM-5" value="Chef" style="shape=umlActor;verticalLabelPosition=bottom;verticalAlign=top;html=1;" vertex="1" parent="1">
          <mxGeometry x="760" y="500" width="30" height="60" as="geometry" />
        </mxCell>
        <mxCell id="X8HMs5meieHF2P_SXbaM-16" value="Webseite" style="shape=folder;fontStyle=1;spacingTop=10;tabWidth=40;tabHeight=14;tabPosition=left;html=1;whiteSpace=wrap;verticalAlign=top;" vertex="1" parent="1">
          <mxGeometry x="200" y="450" width="170" height="140" as="geometry" />
        </mxCell>
        <mxCell id="X8HMs5meieHF2P_SXbaM-17" value="Reservieren" style="ellipse;whiteSpace=wrap;html=1;" vertex="1" parent="1">
          <mxGeometry x="251.25" y="490" width="110" height="40" as="geometry" />
        </mxCell>
        <mxCell id="X8HMs5meieHF2P_SXbaM-18" value="Stornieren" style="ellipse;whiteSpace=wrap;html=1;" vertex="1" parent="1">
          <mxGeometry x="210" y="535" width="96.25" height="35" as="geometry" />
        </mxCell>
        <mxCell id="X8HMs5meieHF2P_SXbaM-22" style="edgeStyle=none;rounded=0;orthogonalLoop=1;jettySize=auto;html=1;exitX=0.5;exitY=0.5;exitDx=0;exitDy=0;exitPerimeter=0;entryX=0.398;entryY=0.007;entryDx=0;entryDy=0;strokeColor=default;align=center;verticalAlign=middle;fontFamily=Helvetica;fontSize=11;fontColor=default;labelBackgroundColor=default;endArrow=none;endFill=0;entryPerimeter=0;" edge="1" parent="1" source="X8HMs5meieHF2P_SXbaM-1" target="X8HMs5meieHF2P_SXbaM-18">
          <mxGeometry relative="1" as="geometry" />
        </mxCell>
        <mxCell id="X8HMs5meieHF2P_SXbaM-21" style="edgeStyle=none;rounded=0;orthogonalLoop=1;jettySize=auto;html=1;exitX=0.5;exitY=0.5;exitDx=0;exitDy=0;exitPerimeter=0;strokeColor=default;align=center;verticalAlign=middle;fontFamily=Helvetica;fontSize=11;fontColor=default;labelBackgroundColor=default;endArrow=none;endFill=0;" edge="1" parent="1" source="X8HMs5meieHF2P_SXbaM-1" target="X8HMs5meieHF2P_SXbaM-17">
          <mxGeometry relative="1" as="geometry" />
        </mxCell>
        <mxCell id="X8HMs5meieHF2P_SXbaM-24" style="edgeStyle=none;rounded=0;orthogonalLoop=1;jettySize=auto;html=1;exitX=0.5;exitY=0.5;exitDx=0;exitDy=0;exitPerimeter=0;entryX=1;entryY=0.5;entryDx=0;entryDy=0;strokeColor=default;align=center;verticalAlign=middle;fontFamily=Helvetica;fontSize=11;fontColor=default;labelBackgroundColor=default;endArrow=none;endFill=0;" edge="1" parent="1" source="X8HMs5meieHF2P_SXbaM-3" target="X8HMs5meieHF2P_SXbaM-19">
          <mxGeometry relative="1" as="geometry" />
        </mxCell>
        <mxCell id="X8HMs5meieHF2P_SXbaM-13" style="rounded=0;orthogonalLoop=1;jettySize=auto;html=1;exitX=0.5;exitY=0.5;exitDx=0;exitDy=0;exitPerimeter=0;entryX=1;entryY=0.5;entryDx=0;entryDy=0;endArrow=none;endFill=0;" edge="1" parent="1" source="X8HMs5meieHF2P_SXbaM-3" target="X8HMs5meieHF2P_SXbaM-11">
          <mxGeometry relative="1" as="geometry" />
        </mxCell>
        <mxCell id="X8HMs5meieHF2P_SXbaM-23" style="edgeStyle=none;rounded=0;orthogonalLoop=1;jettySize=auto;html=1;exitX=0.5;exitY=0.5;exitDx=0;exitDy=0;exitPerimeter=0;entryX=1;entryY=0.5;entryDx=0;entryDy=0;strokeColor=default;align=center;verticalAlign=middle;fontFamily=Helvetica;fontSize=11;fontColor=default;labelBackgroundColor=default;endArrow=none;endFill=0;" edge="1" parent="1" source="X8HMs5meieHF2P_SXbaM-3" target="X8HMs5meieHF2P_SXbaM-15">
          <mxGeometry relative="1" as="geometry" />
        </mxCell>
        <mxCell id="X8HMs5meieHF2P_SXbaM-20" value="Verwaltungssystem" style="shape=folder;fontStyle=1;spacingTop=10;tabWidth=40;tabHeight=14;tabPosition=left;html=1;whiteSpace=wrap;verticalAlign=top;" vertex="1" parent="1">
          <mxGeometry x="410" y="160" width="250" height="430" as="geometry" />
        </mxCell>
        <mxCell id="X8HMs5meieHF2P_SXbaM-52" style="edgeStyle=none;rounded=0;orthogonalLoop=1;jettySize=auto;html=1;exitX=0.5;exitY=0.5;exitDx=0;exitDy=0;exitPerimeter=0;entryX=1;entryY=0.5;entryDx=0;entryDy=0;strokeColor=default;align=center;verticalAlign=middle;fontFamily=Helvetica;fontSize=11;fontColor=default;labelBackgroundColor=default;endArrow=none;endFill=0;" edge="1" parent="1" source="X8HMs5meieHF2P_SXbaM-26" target="X8HMs5meieHF2P_SXbaM-51">
          <mxGeometry relative="1" as="geometry" />
        </mxCell>
        <mxCell id="X8HMs5meieHF2P_SXbaM-26" value="Autorisierter Mitarbeiter" style="shape=umlActor;verticalLabelPosition=bottom;verticalAlign=top;html=1;fontFamily=Helvetica;fontSize=11;fontColor=default;labelBackgroundColor=default;" vertex="1" parent="1">
          <mxGeometry x="760" y="300" width="30" height="60" as="geometry" />
        </mxCell>
        <mxCell id="X8HMs5meieHF2P_SXbaM-47" style="edgeStyle=none;rounded=0;orthogonalLoop=1;jettySize=auto;html=1;exitX=0.5;exitY=0.5;exitDx=0;exitDy=0;exitPerimeter=0;entryX=0;entryY=0.5;entryDx=0;entryDy=0;strokeColor=default;align=center;verticalAlign=middle;fontFamily=Helvetica;fontSize=11;fontColor=default;labelBackgroundColor=default;endArrow=none;endFill=0;" edge="1" parent="1" source="X8HMs5meieHF2P_SXbaM-3" target="X8HMs5meieHF2P_SXbaM-45">
          <mxGeometry relative="1" as="geometry" />
        </mxCell>
        <mxCell id="X8HMs5meieHF2P_SXbaM-3" value="Mitarbeiter" style="shape=umlActor;verticalLabelPosition=bottom;verticalAlign=top;html=1;" vertex="1" parent="1">
          <mxGeometry x="80" y="300" width="30" height="60" as="geometry" />
        </mxCell>
        <mxCell id="X8HMs5meieHF2P_SXbaM-32" style="edgeStyle=none;rounded=0;orthogonalLoop=1;jettySize=auto;html=1;exitX=1;exitY=0.5;exitDx=0;exitDy=0;entryX=0.5;entryY=0.5;entryDx=0;entryDy=0;entryPerimeter=0;strokeColor=default;align=center;verticalAlign=middle;fontFamily=Helvetica;fontSize=11;fontColor=default;labelBackgroundColor=default;endArrow=none;endFill=0;" edge="1" parent="1" source="X8HMs5meieHF2P_SXbaM-27" target="X8HMs5meieHF2P_SXbaM-26">
          <mxGeometry relative="1" as="geometry" />
        </mxCell>
        <mxCell id="X8HMs5meieHF2P_SXbaM-33" style="edgeStyle=none;rounded=0;orthogonalLoop=1;jettySize=auto;html=1;exitX=1;exitY=0.5;exitDx=0;exitDy=0;entryX=0.5;entryY=0.5;entryDx=0;entryDy=0;entryPerimeter=0;strokeColor=default;align=center;verticalAlign=middle;fontFamily=Helvetica;fontSize=11;fontColor=default;labelBackgroundColor=default;endArrow=none;endFill=0;" edge="1" parent="1" source="X8HMs5meieHF2P_SXbaM-28" target="X8HMs5meieHF2P_SXbaM-26">
          <mxGeometry relative="1" as="geometry" />
        </mxCell>
        <mxCell id="X8HMs5meieHF2P_SXbaM-34" style="edgeStyle=none;rounded=0;orthogonalLoop=1;jettySize=auto;html=1;exitX=1;exitY=0.5;exitDx=0;exitDy=0;entryX=0.5;entryY=0.5;entryDx=0;entryDy=0;entryPerimeter=0;strokeColor=default;align=center;verticalAlign=middle;fontFamily=Helvetica;fontSize=11;fontColor=default;labelBackgroundColor=default;endArrow=none;endFill=0;" edge="1" parent="1" source="X8HMs5meieHF2P_SXbaM-29" target="X8HMs5meieHF2P_SXbaM-5">
          <mxGeometry relative="1" as="geometry" />
        </mxCell>
        <mxCell id="X8HMs5meieHF2P_SXbaM-15" value="Reservieren" style="ellipse;whiteSpace=wrap;html=1;" vertex="1" parent="1">
          <mxGeometry x="265" y="250" width="96.25" height="35" as="geometry" />
        </mxCell>
        <mxCell id="X8HMs5meieHF2P_SXbaM-11" value="Kartenverkauf" style="ellipse;whiteSpace=wrap;html=1;" vertex="1" parent="1">
          <mxGeometry x="213.75" y="208.18" width="92.5" height="33.64" as="geometry" />
        </mxCell>
        <mxCell id="X8HMs5meieHF2P_SXbaM-19" value="Stornieren" style="ellipse;whiteSpace=wrap;html=1;" vertex="1" parent="1">
          <mxGeometry x="220" y="300" width="110" height="40" as="geometry" />
        </mxCell>
        <mxCell id="X8HMs5meieHF2P_SXbaM-27" value="Programmanpassung" style="ellipse;whiteSpace=wrap;html=1;fontFamily=Helvetica;fontSize=11;fontColor=default;labelBackgroundColor=default;" vertex="1" parent="1">
          <mxGeometry x="412.5" y="200" width="110" height="50" as="geometry" />
        </mxCell>
        <mxCell id="X8HMs5meieHF2P_SXbaM-29" value="Wirtschaftsdaten einsehen" style="ellipse;whiteSpace=wrap;html=1;fontFamily=Helvetica;fontSize=11;fontColor=default;labelBackgroundColor=default;" vertex="1" parent="1">
          <mxGeometry x="470" y="520" width="170" height="40" as="geometry" />
        </mxCell>
        <mxCell id="X8HMs5meieHF2P_SXbaM-35" value="Säle verwalten" style="ellipse;whiteSpace=wrap;html=1;fontFamily=Helvetica;fontSize=11;fontColor=default;labelBackgroundColor=default;" vertex="1" parent="1">
          <mxGeometry x="420" y="472.5" width="95" height="47.5" as="geometry" />
        </mxCell>
        <mxCell id="X8HMs5meieHF2P_SXbaM-36" style="edgeStyle=none;rounded=0;orthogonalLoop=1;jettySize=auto;html=1;exitX=0.5;exitY=0.5;exitDx=0;exitDy=0;exitPerimeter=0;entryX=1;entryY=0.5;entryDx=0;entryDy=0;strokeColor=default;align=center;verticalAlign=middle;fontFamily=Helvetica;fontSize=11;fontColor=default;labelBackgroundColor=default;endArrow=none;endFill=0;" edge="1" parent="1" source="X8HMs5meieHF2P_SXbaM-5" target="X8HMs5meieHF2P_SXbaM-35">
          <mxGeometry relative="1" as="geometry" />
        </mxCell>
        <mxCell id="X8HMs5meieHF2P_SXbaM-37" value="Preisgestaltung" style="ellipse;whiteSpace=wrap;html=1;fontFamily=Helvetica;fontSize=11;fontColor=default;labelBackgroundColor=default;" vertex="1" parent="1">
          <mxGeometry x="520" y="440" width="120" height="50" as="geometry" />
        </mxCell>
        <mxCell id="X8HMs5meieHF2P_SXbaM-38" style="edgeStyle=none;rounded=0;orthogonalLoop=1;jettySize=auto;html=1;exitX=0.5;exitY=0.5;exitDx=0;exitDy=0;exitPerimeter=0;entryX=1;entryY=1;entryDx=0;entryDy=0;strokeColor=default;align=center;verticalAlign=middle;fontFamily=Helvetica;fontSize=11;fontColor=default;labelBackgroundColor=default;endArrow=none;endFill=0;" edge="1" parent="1" source="X8HMs5meieHF2P_SXbaM-5" target="X8HMs5meieHF2P_SXbaM-37">
          <mxGeometry relative="1" as="geometry" />
        </mxCell>
        <mxCell id="X8HMs5meieHF2P_SXbaM-39" style="edgeStyle=none;rounded=0;orthogonalLoop=1;jettySize=auto;html=1;exitX=0.5;exitY=0.5;exitDx=0;exitDy=0;exitPerimeter=0;entryX=1;entryY=0.5;entryDx=0;entryDy=0;strokeColor=default;align=center;verticalAlign=middle;fontFamily=Helvetica;fontSize=11;fontColor=default;labelBackgroundColor=default;endArrow=none;endFill=0;" edge="1" parent="1" source="X8HMs5meieHF2P_SXbaM-5" target="X8HMs5meieHF2P_SXbaM-27">
          <mxGeometry relative="1" as="geometry" />
        </mxCell>
        <mxCell id="X8HMs5meieHF2P_SXbaM-40" style="edgeStyle=none;rounded=0;orthogonalLoop=1;jettySize=auto;html=1;exitX=0.5;exitY=0.5;exitDx=0;exitDy=0;exitPerimeter=0;entryX=1;entryY=0.5;entryDx=0;entryDy=0;strokeColor=default;align=center;verticalAlign=middle;fontFamily=Helvetica;fontSize=11;fontColor=default;labelBackgroundColor=default;endArrow=none;endFill=0;" edge="1" parent="1" source="X8HMs5meieHF2P_SXbaM-5" target="X8HMs5meieHF2P_SXbaM-28">
          <mxGeometry relative="1" as="geometry" />
        </mxCell>
        <mxCell id="X8HMs5meieHF2P_SXbaM-28" value="Anbietervergleich" style="ellipse;whiteSpace=wrap;html=1;fontFamily=Helvetica;fontSize=11;fontColor=default;labelBackgroundColor=default;" vertex="1" parent="1">
          <mxGeometry x="540" y="200" width="100" height="50" as="geometry" />
        </mxCell>
        <mxCell id="X8HMs5meieHF2P_SXbaM-42" style="edgeStyle=none;rounded=0;orthogonalLoop=1;jettySize=auto;html=1;exitX=0.5;exitY=0.5;exitDx=0;exitDy=0;exitPerimeter=0;entryX=1;entryY=0.5;entryDx=0;entryDy=0;strokeColor=default;align=center;verticalAlign=middle;fontFamily=Helvetica;fontSize=11;fontColor=default;labelBackgroundColor=default;endArrow=none;endFill=0;" edge="1" parent="1" source="X8HMs5meieHF2P_SXbaM-26" target="X8HMs5meieHF2P_SXbaM-41">
          <mxGeometry relative="1" as="geometry" />
        </mxCell>
        <mxCell id="X8HMs5meieHF2P_SXbaM-44" style="edgeStyle=none;rounded=0;orthogonalLoop=1;jettySize=auto;html=1;exitX=0.5;exitY=0.5;exitDx=0;exitDy=0;exitPerimeter=0;entryX=1;entryY=0.5;entryDx=0;entryDy=0;strokeColor=default;align=center;verticalAlign=middle;fontFamily=Helvetica;fontSize=11;fontColor=default;labelBackgroundColor=default;endArrow=none;endFill=0;" edge="1" parent="1" source="X8HMs5meieHF2P_SXbaM-5" target="X8HMs5meieHF2P_SXbaM-41">
          <mxGeometry relative="1" as="geometry" />
        </mxCell>
        <mxCell id="X8HMs5meieHF2P_SXbaM-45" value="Snackverkauf" style="ellipse;whiteSpace=wrap;html=1;" vertex="1" parent="1">
          <mxGeometry x="251.25" y="350" width="110" height="40" as="geometry" />
        </mxCell>
        <mxCell id="X8HMs5meieHF2P_SXbaM-48" value="Zentrallager verwalten" style="ellipse;whiteSpace=wrap;html=1;fontFamily=Helvetica;fontSize=11;fontColor=default;labelBackgroundColor=default;" vertex="1" parent="1">
          <mxGeometry x="420" y="260" width="120" height="65.45" as="geometry" />
        </mxCell>
        <mxCell id="X8HMs5meieHF2P_SXbaM-49" style="edgeStyle=none;rounded=0;orthogonalLoop=1;jettySize=auto;html=1;exitX=1;exitY=0.5;exitDx=0;exitDy=0;entryX=0.5;entryY=0.5;entryDx=0;entryDy=0;entryPerimeter=0;strokeColor=default;align=center;verticalAlign=middle;fontFamily=Helvetica;fontSize=11;fontColor=default;labelBackgroundColor=default;endArrow=none;endFill=0;" edge="1" parent="1" source="X8HMs5meieHF2P_SXbaM-48" target="X8HMs5meieHF2P_SXbaM-26">
          <mxGeometry relative="1" as="geometry" />
        </mxCell>
        <mxCell id="X8HMs5meieHF2P_SXbaM-50" style="edgeStyle=none;rounded=0;orthogonalLoop=1;jettySize=auto;html=1;exitX=0.5;exitY=0.5;exitDx=0;exitDy=0;exitPerimeter=0;entryX=1;entryY=0.5;entryDx=0;entryDy=0;strokeColor=default;align=center;verticalAlign=middle;fontFamily=Helvetica;fontSize=11;fontColor=default;labelBackgroundColor=default;endArrow=none;endFill=0;" edge="1" parent="1" source="X8HMs5meieHF2P_SXbaM-5" target="X8HMs5meieHF2P_SXbaM-48">
          <mxGeometry relative="1" as="geometry" />
        </mxCell>
        <mxCell id="X8HMs5meieHF2P_SXbaM-41" value="Saalvermietung" style="ellipse;whiteSpace=wrap;html=1;fontFamily=Helvetica;fontSize=11;fontColor=default;labelBackgroundColor=default;" vertex="1" parent="1">
          <mxGeometry x="425" y="390" width="100" height="50" as="geometry" />
        </mxCell>
        <mxCell id="X8HMs5meieHF2P_SXbaM-51" value="Filmbesuchsstatistik einsehen" style="ellipse;whiteSpace=wrap;html=1;fontFamily=Helvetica;fontSize=11;fontColor=default;labelBackgroundColor=default;" vertex="1" parent="1">
          <mxGeometry x="490" y="325.45" width="160" height="50" as="geometry" />
        </mxCell>
        <mxCell id="X8HMs5meieHF2P_SXbaM-54" style="edgeStyle=none;rounded=0;orthogonalLoop=1;jettySize=auto;html=1;exitX=0.5;exitY=0.5;exitDx=0;exitDy=0;exitPerimeter=0;entryX=1;entryY=0.5;entryDx=0;entryDy=0;strokeColor=default;align=center;verticalAlign=middle;fontFamily=Helvetica;fontSize=11;fontColor=default;labelBackgroundColor=default;endArrow=none;endFill=0;" edge="1" parent="1" source="X8HMs5meieHF2P_SXbaM-5" target="X8HMs5meieHF2P_SXbaM-51">
          <mxGeometry relative="1" as="geometry" />
        </mxCell>
      </root>
    </mxGraphModel>
  </diagram>
</mxfile>
